<svg width="100" height="100" xmlns="http://www.w3.org/2000/svg">
 <!-- Created with Method Draw - http://github.com/duopixel/Method-Draw/ -->
 <g>
  <title>background</title>
  <rect fill="none" id="canvas_background" height="102" width="102" y="-1" x="-1"/>
  <g display="none" overflow="visible" y="0" x="0" height="100%" width="100%" id="canvasGrid">
   <rect fill="url(#gridpattern)" stroke-width="0" y="0" x="0" height="100%" width="100%"/>
  </g>
 </g>
 <g>
  <title>Layer 1</title>
  <path stroke="#000" d="m41.91666,42.53732c0,0 0,-1.44776 0,-2.89552c0,-1.44776 0.66479,-4.16746 1.34723,-8.68657c0.21581,-1.42907 0,-4.34328 1.34723,-7.23881c0,0 0,-2.89552 0,-2.89552c1.34722,-1.44776 0.83165,-3.00573 1.34722,-4.34328c0.72912,-1.89159 0.83165,-3.00573 1.34723,-4.34328c0.72911,-1.89159 1.34722,-2.89552 1.34722,-4.34328c0,-1.44776 1.34722,-1.44776 1.34722,-2.89552c0,-1.44776 0,-1.44776 0,-2.89552c0,0 0,0 0,0c1.34722,0 1.34722,0 1.34722,0c0,0 0,1.44776 0,1.44776c0,0 0,1.44776 0,2.89552c0,1.44776 1.34723,1.44776 1.34723,2.89552c0,1.44776 1.34722,2.89552 1.34722,2.89552c1.34723,1.44776 1.34723,2.89552 1.34723,2.89552c1.34722,1.44776 1.34722,1.44776 1.34722,2.89552c0,1.44776 1.34722,1.44776 1.34722,2.89552c0,0 1.34723,1.44776 1.34723,1.44776c0,1.44776 1.34722,2.89552 1.34722,2.89552c0,1.44776 1.34723,1.44776 1.34723,1.44776c0,1.44776 0.39458,0.42403 1.34722,1.44776c0.95264,1.02373 0,1.44776 0,1.44776c0,1.44776 0,1.44776 0,1.44776c1.34723,1.44776 1.34723,1.44776 1.34723,1.44776c0,0 0,1.44777 0,1.44777c1.34722,0 1.34722,0 1.34722,0c1.34722,0 2.69444,0 4.04166,0c1.34722,0 2.28144,0.66423 4.04167,1.44776c1.24465,0.55404 2.69444,0 4.04166,0c0,0 1.34722,1.44777 2.69445,1.44777c0,0 1.34721,0 1.34721,0c1.34722,0 1.34722,0 2.69445,1.44776c0,0 0,0 1.34722,0c1.34722,0 1.44979,-0.55403 2.69444,0c1.76022,0.78353 1.34722,1.44776 1.34722,1.44776c0,0 1.34722,0 1.34722,0c0,0 0,0 1.34723,0c0,0 0,0 1.34721,0c0,0 1.34722,0 1.34722,0c0,1.44776 0,1.44776 1.34723,1.44776c0,0 0,0 1.34722,0c0,0 0,0 0,0c0,0 0,1.44776 0,1.44776c0,0 -1.34722,0 -2.69445,0c0,0 -1.44978,-0.55403 -2.69444,0c-1.76023,0.78353 -2.69445,1.44776 -4.04167,1.44776c-1.34722,0 -1.34722,1.44776 -1.34722,1.44776c-1.34722,0 -1.34722,0 -1.34722,0c0,0 -0.3946,0.42404 -1.34722,1.44777c-0.95264,1.02373 -1.34723,0 -1.34723,0c-1.34722,1.44776 -1.74181,0.42403 -2.69444,1.44776c-0.95264,1.02373 0,1.44776 0,1.44776c-1.34723,0 -1.34723,0 -1.34723,0c0,0 -1.34722,1.44777 -1.34722,1.44777c0,0 0,0 -1.34722,0c0,0 0,0 0,0c-1.34722,1.44776 -1.74181,0.42403 -2.69444,1.44776c-0.95264,1.02373 -1.34722,1.44776 -1.34722,1.44776c0,0 -0.39459,-1.02373 -1.34723,0c-0.95264,1.02373 0,1.44777 0,1.44777c-1.34722,0 -1.34722,0 -2.69444,0c0,0 0,0 0,0c0,0 0,0 0,1.44776c0,0 0,0 0,0c0,0 0,0 0,0c1.34722,0 1.34722,1.44776 1.34722,1.44776c0,0 1.96533,1.00394 2.69445,2.89552c0.51557,1.33756 1.03769,1.48648 1.34722,2.89552c0.69213,3.15069 2.17888,3.00573 2.69444,4.34328c0.72911,1.89159 1.74181,1.8718 2.69444,2.89552c0.95264,1.02373 1.34723,2.89552 1.34723,2.89552c1.34721,1.44775 0.39458,1.87179 1.34721,2.89552c0.95264,1.02373 1.34722,0 1.34722,1.44776c0,0 1.34723,0 1.34723,0c0,1.44775 0,1.44775 0,1.44775c0,0 0,0 0,0c0,1.44777 0,1.44777 0,1.44777c0,1.44776 1.34722,1.44776 1.34722,1.44776c0,2.89552 1.34722,2.89552 1.34722,2.89552c0,1.44777 0,1.44777 0,2.89552c0,0 1.34722,0 1.34722,0c-1.34722,0 -1.34722,0 -1.34722,-1.44775c0,0 0,0 0,0c-1.34722,0 -1.34722,0 -1.34722,-1.44777c0,0 -1.34722,0 -1.34722,0c-1.34723,-1.44776 -0.93423,-2.11199 -2.69445,-2.89552c-1.24466,-0.55403 -1.34721,0 -1.34721,0c-1.34723,-1.44776 -2.69445,-1.44776 -2.69445,-1.44776c-1.34722,-1.44777 -1.34722,-1.44777 -2.69444,-1.44777c0,0 -1.34722,-1.44775 -1.34722,-1.44775c0,0 -1.34722,0 -1.34722,-1.44776c0,0 -1.34723,0 -1.34723,0c-1.34722,0 -1.34722,0 -1.34722,-1.44777c0,0 -1.34722,0 -1.34722,0c0,0 0,-1.44775 -1.34722,-1.44775c0,0 -0.39458,-0.42403 -1.34722,-1.44776c-0.95264,-1.02374 -1.34722,0 -1.34722,0c0,0 -1.34723,0 -1.34723,0c0,-1.44776 0,-1.44776 0,-1.44776c-1.34722,0 -1.34722,0 -1.34722,-1.44776c0,0 -1.34723,0 -1.34723,0c-1.34722,0 -1.34722,-1.44776 -2.69445,-1.44776c0,0 -0.39459,1.02373 -1.34722,0c-0.95264,-1.02373 0,-1.44775 0,-1.44775c0,0 0.95263,0.42403 0,1.44775c-0.95264,1.02373 -1.34722,0 -1.34722,0c0,0 0,0 0,1.44776c0,0 -0.39458,0.42403 -1.34723,1.44776c-0.95263,1.02373 -1.34722,1.44776 -2.69444,1.44776c0,0 -1.34722,1.44776 -1.34722,1.44776c0,0 0,1.44775 -1.34722,1.44775c0,0 0,0 0,0c0,0 -1.34722,1.44777 -1.34722,1.44777c-1.34723,1.44776 -3.31255,1.00393 -4.04167,2.89552c-0.51557,1.33757 -2.17887,1.55796 -2.69444,2.89553c-0.72912,1.89159 -2.69445,1.44775 -4.04167,2.89552c0,0 -1.34722,0 -1.34722,1.44777c0,0 0,0 0,0c-1.34723,1.44775 -1.74181,0.42403 -2.69445,1.44775c-0.95263,1.02373 -0.63895,1.66398 -1.34722,2.89553c-1.58375,2.75379 -2.69444,1.44775 -4.04167,2.89552c-1.34722,1.44776 -2.69444,1.44776 -2.69444,2.89552c0,0 -1.34722,0 -1.34722,1.44776c0,0 0,-1.44776 0,-1.44776c0,0 0,0 0,-1.44776c0,0 0,0 1.34722,-1.44776c0,0 0,0 0,0c0,-1.44776 0,-1.44776 0,-2.89552c0,0 0.39459,-0.42403 1.34722,-1.44777c0.95263,-1.02373 0,-2.89552 0,-2.89552c0,-1.44777 0.39459,-1.8718 1.34722,-2.89553c0.95263,-1.02372 0,-1.44775 0,-2.89552c0,0 0.39459,-0.42403 1.34722,-1.44777c0.95263,-1.02372 0,-1.44775 0,-2.89552c0,-1.44777 1.34722,-1.44777 1.34722,-2.89552c0,-1.44776 1.34722,-2.89552 1.34722,-2.89552c0,-1.44776 -0.51557,-3.00572 0,-4.34328c0.72912,-1.89159 1.34722,-1.44777 1.34722,-2.89553c0,0 0,-1.44776 0,-1.44776c0,0 0,-1.44776 0,-1.44776c0,0 1.34722,0 1.34722,0c0,0 0,-1.44777 0,-1.44777c0,0 0,0 0,0c-1.34722,0 -1.34722,0 -1.34722,0c0,-1.44776 -1.34722,-1.44776 -1.34722,-1.44776c-1.34722,0 -2.69444,-1.44776 -2.69444,-1.44776c-1.34722,-1.44776 -0.93422,-2.112 -2.69444,-2.89552c-1.24466,-0.55403 -1.44979,-0.89373 -2.69444,-1.44776c-1.76023,-0.78352 -1.74181,-1.87179 -2.69444,-2.89552c-0.95263,-1.02372 -0.39459,-0.42403 -1.34722,-1.44776c-0.95263,-1.02373 -1.34722,-1.44776 -1.34722,-1.44776c0,-1.44777 -1.34722,-1.44777 -1.34722,-1.44777c0,-1.44776 0,-1.44776 -1.34722,-1.44776c0,0 0,-1.44776 -1.34722,-1.44776c0,0 -0.39459,1.02373 -1.34722,0c-0.95264,-1.02372 0,-1.44776 0,-1.44776c0,0 -1.74181,1.02372 -2.69445,0c-0.95263,-1.02372 -0.93422,-3.55976 -2.69444,-4.34328c-1.24466,-0.55403 -1.74181,-0.42404 -2.69444,-1.44777c-0.95263,-1.02372 -1.34722,-1.44776 -2.69444,-1.44776c0,0 1.34722,0 1.34722,0c0,0 0,0 0,0c1.34722,0 1.34722,0 1.34722,0c0,0 1.34722,0 1.34722,0c0,0 1.34722,0 1.34722,0c0,0 1.34722,0 2.69444,1.44776c0,0 2.69445,0 2.69445,0c1.34722,0 2.69444,0 2.69444,0c1.34722,0 2.69444,0 2.69444,0c0,0 1.34722,0 2.69444,0c0,0 0.39459,0.42404 1.34722,1.44777c0.95263,1.02372 2.69445,0 2.69445,0c1.34722,0 1.34722,0 2.69444,0c0,0 1.34722,0 1.34722,0c0,0 1.34722,0 1.34722,0c0,0 0,1.44776 1.34722,1.44776c0,0 0,0 0,0c1.34722,0 1.34722,0 1.34722,0c0,0 0,0 1.34722,0c0,0 0,0 0,0c1.34723,0 1.34723,1.44776 1.34723,1.44776c0,0 1.34722,0 1.34722,0c0,0 1.34722,0 1.34722,0c0,0 1.34722,0 1.34722,0c0,0 0,0 0,0c1.34723,0 1.34723,0 1.34723,1.44776c0,0 1.34722,0 1.34722,0l0,0l0,0l0,0" id="svg_1" stroke-width="1.5" fill="#FFFA8D"/>
 </g>
</svg>